<?xml version="1.0" encoding="utf-8"?>
<svg xmlns="http://www.w3.org/2000/svg" fill="none" version="1.1" viewBox="-1 -431.006 2836.65 432.006" x="-1pt" y="-431.006pt" width="2836.65pt" height="432.006pt" stroke-width="0.566929" stroke-miterlimit="10.000000">
 <defs>
  <clipPath id="clippath140323387028928">
   <path d="M0 -0L2834.65 -0L2834.65 -141.732L0 -141.732Z"/>
  </clipPath>
  <clipPath id="clippath140323387030776">
   <path d="M0 -141.732L2834.65 -141.732L2834.65 -425.197L0 -425.197Z"/>
  </clipPath>
  <clipPath id="clippath140323387081840">
   <path d="M0 -141.732L2834.65 -141.732L2834.65 -340.157L0 -340.157Z"/>
  </clipPath>
  <clipPath id="clippath140323387083688">
   <path d="M0 -141.732L2834.65 -141.732L2834.65 -286.299L0 -286.299Z"/>
  </clipPath>
  <clipPath id="clippath140323387084024">
   <path d="M0 -141.732L2834.65 -141.732L2834.65 -340.157L0 -340.157Z"/>
  </clipPath>
  <clipPath id="clippath140323387122800">
   <path d="M0 -141.732L2834.65 -141.732L2834.65 -286.299L0 -286.299Z"/>
  </clipPath>
  <clipPath id="clippath140323387123136">
   <path d="M566.929 -283.465L1700.79 -283.465L1700.79 -623.622L566.929 -623.622Z"/>
  </clipPath>
  <clipPath id="clippath140323387124144">
   <path d="M566.929 -283.465L1700.79 -283.465L1700.79 -623.622L566.929 -623.622Z"/>
  </clipPath>
  <clipPath id="clippath140323387125152">
   <path d="M566.929 -283.465L1700.79 -283.465L1700.79 -623.622L566.929 -623.622Z"/>
  </clipPath>
  <clipPath id="clippath140323387154896">
   <path d="M1133.86 -283.465L2834.65 -283.465L2834.65 -623.622L1133.86 -623.622Z"/>
  </clipPath>
  <clipPath id="clippath140323387156184">
   <path d="M1700.79 -340.157L3968.5 -340.157L3968.5 -765.354L1700.79 -765.354Z"/>
  </clipPath>
  <clipPath id="clippath140323387157472">
   <path d="M1700.79 -340.157L3968.5 -340.157L3968.5 -765.354L1700.79 -765.354Z"/>
  </clipPath>
  <clipPath id="clippath140323387187496">
   <path d="M1700.79 -340.157L3968.5 -340.157L3968.5 -704.864L1700.79 -704.864Z"/>
  </clipPath>
 </defs>
 <g clip-path="url(#clippath140323387028928)">
  <path d="M0 1.41732L141.732 1.41732L141.732 -140.315L0 -140.315Z" fill="#000"/>
  <path d="M283.465 1.41732L425.197 1.41732L425.197 -140.315L283.465 -140.315Z" fill="#000"/>
  <path d="M566.929 1.41732L708.661 1.41732L708.661 -140.315L566.929 -140.315Z" fill="#000"/>
  <path d="M850.394 1.41732L992.126 1.41732L992.126 -140.315L850.394 -140.315Z" fill="#000"/>
  <path d="M1133.86 1.41732L1275.59 1.41732L1275.59 -140.315L1133.86 -140.315Z" fill="#000"/>
  <path d="M1417.32 1.41732L1559.06 1.41732L1559.06 -140.315L1417.32 -140.315Z" fill="#000"/>
  <path d="M1700.79 1.41732L1842.52 1.41732L1842.52 -140.315L1700.79 -140.315Z" fill="#000"/>
  <path d="M1984.25 1.41732L2125.98 1.41732L2125.98 -140.315L1984.25 -140.315Z" fill="#000"/>
  <path d="M2267.72 1.41732L2409.45 1.41732L2409.45 -140.315L2267.72 -140.315Z" fill="#000"/>
  <path d="M2551.18 1.41732L2692.91 1.41732L2692.91 -140.315L2551.18 -140.315Z" fill="#000"/>
 </g>
 <g clip-path="url(#clippath140323387030776)">
  <path d="M56.6929 -140.315L198.425 -140.315L198.425 -282.047L56.6929 -282.047Z" fill="#000"/>
  <path d="M340.157 -140.315L481.89 -140.315L481.89 -282.047L340.157 -282.047Z" fill="#000"/>
  <path d="M623.622 -140.315L765.354 -140.315L765.354 -282.047L623.622 -282.047Z" fill="#000"/>
  <path d="M907.087 -140.315L1048.82 -140.315L1048.82 -282.047L907.087 -282.047Z" fill="#000"/>
  <path d="M1190.55 -140.315L1332.28 -140.315L1332.28 -282.047L1190.55 -282.047Z" fill="#000"/>
  <path d="M1474.02 -140.315L1615.75 -140.315L1615.75 -282.047L1474.02 -282.047Z" fill="#000"/>
  <path d="M1757.48 -140.315L1899.21 -140.315L1899.21 -282.047L1757.48 -282.047Z" fill="#000"/>
  <path d="M2040.94 -140.315L2182.68 -140.315L2182.68 -282.047L2040.94 -282.047Z" fill="#000"/>
  <path d="M2324.41 -140.315L2466.14 -140.315L2466.14 -282.047L2324.41 -282.047Z" fill="#000"/>
  <path d="M2607.87 -140.315L2749.61 -140.315L2749.61 -282.047L2607.87 -282.047Z" fill="#000"/>
 </g>
 <g clip-path="url(#clippath140323387081840)">
  <path d="M209.764 -138.898L272.126 -138.898L272.126 -201.26L209.764 -201.26Z" fill="#f00"/>
  <path d="M493.228 -138.898L555.591 -138.898L555.591 -201.26L493.228 -201.26Z" fill="#f00"/>
  <path d="M776.693 -138.898L839.055 -138.898L839.055 -201.26L776.693 -201.26Z" fill="#f00"/>
  <path d="M1060.16 -138.898L1122.52 -138.898L1122.52 -201.26L1060.16 -201.26Z" fill="#f00"/>
  <path d="M1343.62 -138.898L1405.98 -138.898L1405.98 -201.26L1343.62 -201.26Z" fill="#f00"/>
  <path d="M1627.09 -138.898L1689.45 -138.898L1689.45 -201.26L1627.09 -201.26Z" fill="#f00"/>
  <path d="M1910.55 -138.898L1972.91 -138.898L1972.91 -201.26L1910.55 -201.26Z" fill="#f00"/>
  <path d="M2194.02 -138.898L2256.38 -138.898L2256.38 -201.26L2194.02 -201.26Z" fill="#f00"/>
  <path d="M2477.48 -138.898L2539.84 -138.898L2539.84 -201.26L2477.48 -201.26Z" fill="#f00"/>
  <path d="M2760.94 -138.898L2823.31 -138.898L2823.31 -201.26L2760.94 -201.26Z" fill="#f00"/>
 </g>
 <g clip-path="url(#clippath140323387083688)">
  <path d="M0 -144.567L2834.65 -144.567L2834.65 -147.402L0 -147.402Z" fill="#f00"/>
 </g>
 <g clip-path="url(#clippath140323387084024)">
  <path d="M212.598 -141.732L269.291 -141.732L269.291 -198.425L212.598 -198.425Z" fill="#000"/>
  <path d="M496.063 -141.732L552.756 -141.732L552.756 -198.425L496.063 -198.425Z" fill="#000"/>
  <path d="M779.528 -141.732L836.22 -141.732L836.22 -198.425L779.528 -198.425Z" fill="#000"/>
  <path d="M1062.99 -141.732L1119.69 -141.732L1119.69 -198.425L1062.99 -198.425Z" fill="#000"/>
  <path d="M1346.46 -141.732L1403.15 -141.732L1403.15 -198.425L1346.46 -198.425Z" fill="#000"/>
  <path d="M1629.92 -141.732L1686.61 -141.732L1686.61 -198.425L1629.92 -198.425Z" fill="#000"/>
  <path d="M1913.39 -141.732L1970.08 -141.732L1970.08 -198.425L1913.39 -198.425Z" fill="#000"/>
  <path d="M2196.85 -141.732L2253.54 -141.732L2253.54 -198.425L2196.85 -198.425Z" fill="#000"/>
  <path d="M2480.31 -141.732L2537.01 -141.732L2537.01 -198.425L2480.31 -198.425Z" fill="#000"/>
  <path d="M2763.78 -141.732L2820.47 -141.732L2820.47 -198.425L2763.78 -198.425Z" fill="#000"/>
 </g>
 <g clip-path="url(#clippath140323387122800)">
  <path d="M0 -141.732L2834.65 -141.732L2834.65 -144.567L0 -144.567Z" fill="#000"/>
 </g>
 <g clip-path="url(#clippath140323387123136)">
  <path d="M685.984 -283.465A62.3622 62.3622 0 0 0 561.26 -283.465L685.984 -283.465" fill="#00f"/>
  <path d="M827.717 -283.465A62.3622 62.3622 0 0 0 702.992 -283.465L827.717 -283.465" fill="#00f"/>
  <path d="M969.449 -283.465A62.3622 62.3622 0 0 0 844.724 -283.465L969.449 -283.465" fill="#00f"/>
  <path d="M1111.18 -283.465A62.3622 62.3622 0 0 0 986.457 -283.465L1111.18 -283.465" fill="#00f"/>
  <path d="M1252.91 -283.465A62.3622 62.3622 0 0 0 1128.19 -283.465L1252.91 -283.465" fill="#00f"/>
 </g>
 <g clip-path="url(#clippath140323387124144)">
  <path d="M683.15 -283.465A59.5276 59.5276 0 0 0 564.094 -283.465L683.15 -283.465" fill="#f00"/>
  <path d="M824.882 -283.465A59.5276 59.5276 0 0 0 705.827 -283.465L824.882 -283.465" fill="#f00"/>
  <path d="M966.614 -283.465A59.5276 59.5276 0 0 0 847.559 -283.465L966.614 -283.465" fill="#f00"/>
  <path d="M1108.35 -283.465A59.5276 59.5276 0 0 0 989.291 -283.465L1108.35 -283.465" fill="#f00"/>
  <path d="M1250.08 -283.465A59.5276 59.5276 0 0 0 1131.02 -283.465L1250.08 -283.465" fill="#f00"/>
 </g>
 <g clip-path="url(#clippath140323387125152)">
  <path d="M680.315 -283.465A56.6929 56.6929 0 0 0 566.929 -283.465L680.315 -283.465" fill="#000"/>
  <path d="M822.047 -283.465A56.6929 56.6929 0 0 0 708.661 -283.465L822.047 -283.465" fill="#000"/>
  <path d="M963.78 -283.465A56.6929 56.6929 0 0 0 850.394 -283.465L963.78 -283.465" fill="#000"/>
  <path d="M1105.51 -283.465A56.6929 56.6929 0 0 0 992.126 -283.465L1105.51 -283.465" fill="#000"/>
  <path d="M1247.24 -283.465A56.6929 56.6929 0 0 0 1133.86 -283.465L1247.24 -283.465" fill="#000"/>
 </g>
 <g clip-path="url(#clippath140323387154896)">
  <path d="M1133.86 -283.465L1162.2 -340.157L1162.2 -283.465L1133.86 -283.465" fill="#000"/>
  <path d="M1275.59 -283.465L1303.94 -340.157L1303.94 -283.465L1275.59 -283.465" fill="#000"/>
  <path d="M1417.32 -283.465L1445.67 -340.157L1445.67 -283.465L1417.32 -283.465" fill="#000"/>
  <path d="M1559.06 -283.465L1587.4 -340.157L1587.4 -283.465L1559.06 -283.465" fill="#000"/>
  <path d="M1700.79 -283.465L1729.13 -340.157L1729.13 -283.465L1700.79 -283.465" fill="#000"/>
 </g>
 <g clip-path="url(#clippath140323387156184)">
  <path d="M1700.79 -340.157L1695.98 -336.485L1757.78 -430.006L1789.43 -367.013Z" fill="#f00"/>
  <path d="M1842.52 -340.157L1837.71 -336.485L1899.51 -430.006L1931.16 -367.013Z" fill="#f00"/>
  <path d="M1984.25 -340.157L1979.44 -336.485L2041.24 -430.006L2072.89 -367.013Z" fill="#f00"/>
  <path d="M2125.98 -340.157L2121.18 -336.485L2182.98 -430.006L2214.62 -367.013Z" fill="#f00"/>
  <path d="M2267.72 -340.157L2262.91 -336.485L2324.71 -430.006L2356.36 -367.013Z" fill="#f00"/>
 </g>
 <g clip-path="url(#clippath140323387157472)">
  <path d="M1700.79 -340.157L1757.48 -425.197L1785.83 -368.504L1700.79 -340.157Z" fill="#000"/>
  <path d="M1842.52 -340.157L1899.21 -425.197L1927.56 -368.504L1842.52 -340.157Z" fill="#000"/>
  <path d="M1984.25 -340.157L2040.94 -425.197L2069.29 -368.504L1984.25 -340.157Z" fill="#000"/>
  <path d="M2125.98 -340.157L2182.68 -425.197L2211.02 -368.504L2125.98 -340.157Z" fill="#000"/>
  <path d="M2267.72 -340.157L2324.41 -425.197L2352.76 -368.504L2267.72 -340.157Z" fill="#000"/>
 </g>
 <g clip-path="url(#clippath140323387187496)">
  <path d="M1771.65 -340.157L1785.83 -364.706L1800 -340.157Z" fill="#000"/>
  <path d="M1913.39 -340.157L1927.56 -364.706L1941.73 -340.157Z" fill="#000"/>
  <path d="M2055.12 -340.157L2069.29 -364.706L2083.46 -340.157Z" fill="#000"/>
  <path d="M2196.85 -340.157L2211.02 -364.706L2225.2 -340.157Z" fill="#000"/>
 </g>
</svg>
