<?xml version="1.0" encoding="utf-8"?>
<svg xmlns="http://www.w3.org/2000/svg" fill="none" version="1.1" viewBox="-1 -431.006 2836.65 432.006" x="-1pt" y="-431.006pt" width="2836.65pt" height="432.006pt" stroke-width="0.566929" stroke-miterlimit="10.000000">
 <defs>
  <clipPath id="clippath140098098203000">
   <path d="M0 -0L2834.65 -0L2834.65 -141.732L0 -141.732Z"/>
  </clipPath>
  <clipPath id="clippath140098097746160">
   <path d="M0 -141.732L2834.65 -141.732L2834.65 -425.197L0 -425.197Z"/>
  </clipPath>
  <clipPath id="clippath140098097748008">
   <path d="M0 -141.732L2834.65 -141.732L2834.65 -481.89L0 -481.89Z"/>
  </clipPath>
  <clipPath id="clippath140098097749856">
   <path d="M0 -141.732L2834.65 -141.732L2834.65 -286.299L0 -286.299Z"/>
  </clipPath>
  <clipPath id="clippath140098097778928">
   <path d="M0 -141.732L2834.65 -141.732L2834.65 -481.89L0 -481.89Z"/>
  </clipPath>
  <clipPath id="clippath140098097780776">
   <path d="M0 -141.732L2834.65 -141.732L2834.65 -286.299L0 -286.299Z"/>
  </clipPath>
  <clipPath id="clippath140098097781112">
   <path d="M566.929 -283.465L1700.79 -283.465L1700.79 -1190.55L566.929 -1190.55Z"/>
  </clipPath>
  <clipPath id="clippath140098097782120">
   <path d="M566.929 -283.465L1700.79 -283.465L1700.79 -1190.55L566.929 -1190.55Z"/>
  </clipPath>
  <clipPath id="clippath140098097828248">
   <path d="M566.929 -283.465L1700.79 -283.465L1700.79 -1190.55L566.929 -1190.55Z"/>
  </clipPath>
  <clipPath id="clippath140098097829256">
   <path d="M1133.86 -283.465L2834.65 -283.465L2834.65 -623.622L1133.86 -623.622Z"/>
  </clipPath>
  <clipPath id="clippath140098097830544">
   <path d="M1700.79 -340.157L3968.5 -340.157L3968.5 -1105.51L1700.79 -1105.51Z"/>
  </clipPath>
  <clipPath id="clippath140098097831832">
   <path d="M1700.79 -340.157L3968.5 -340.157L3968.5 -1105.51L1700.79 -1105.51Z"/>
  </clipPath>
  <clipPath id="clippath140098097861856">
   <path d="M1700.79 -340.157L3968.5 -340.157L3968.5 -704.864L1700.79 -704.864Z"/>
  </clipPath>
 </defs>
 <g clip-path="url(#clippath140098098203000)">
  <path d="M0 -0L141.732 -0L141.732 -141.732L0 -141.732Z" fill="#000"/>
  <path d="M283.465 -0L425.197 -0L425.197 -141.732L283.465 -141.732Z" fill="#000"/>
  <path d="M566.929 -0L708.661 -0L708.661 -141.732L566.929 -141.732Z" fill="#000"/>
  <path d="M850.394 -0L992.126 -0L992.126 -141.732L850.394 -141.732Z" fill="#000"/>
  <path d="M1133.86 -0L1275.59 -0L1275.59 -141.732L1133.86 -141.732Z" fill="#000"/>
  <path d="M1417.32 -0L1559.06 -0L1559.06 -141.732L1417.32 -141.732Z" fill="#000"/>
  <path d="M1700.79 -0L1842.52 -0L1842.52 -141.732L1700.79 -141.732Z" fill="#000"/>
  <path d="M1984.25 -0L2125.98 -0L2125.98 -141.732L1984.25 -141.732Z" fill="#000"/>
  <path d="M2267.72 -0L2409.45 -0L2409.45 -141.732L2267.72 -141.732Z" fill="#000"/>
  <path d="M2551.18 -0L2692.91 -0L2692.91 -141.732L2551.18 -141.732Z" fill="#000"/>
 </g>
 <g clip-path="url(#clippath140098097746160)">
  <path d="M56.6929 -141.732L198.425 -141.732L198.425 -283.465L56.6929 -283.465Z" fill="#000"/>
  <path d="M340.157 -141.732L481.89 -141.732L481.89 -283.465L340.157 -283.465Z" fill="#000"/>
  <path d="M623.622 -141.732L765.354 -141.732L765.354 -283.465L623.622 -283.465Z" fill="#000"/>
  <path d="M907.087 -141.732L1048.82 -141.732L1048.82 -283.465L907.087 -283.465Z" fill="#000"/>
  <path d="M1190.55 -141.732L1332.28 -141.732L1332.28 -283.465L1190.55 -283.465Z" fill="#000"/>
  <path d="M1474.02 -141.732L1615.75 -141.732L1615.75 -283.465L1474.02 -283.465Z" fill="#000"/>
  <path d="M1757.48 -141.732L1899.21 -141.732L1899.21 -283.465L1757.48 -283.465Z" fill="#000"/>
  <path d="M2040.94 -141.732L2182.68 -141.732L2182.68 -283.465L2040.94 -283.465Z" fill="#000"/>
  <path d="M2324.41 -141.732L2466.14 -141.732L2466.14 -283.465L2324.41 -283.465Z" fill="#000"/>
  <path d="M2607.87 -141.732L2749.61 -141.732L2749.61 -283.465L2607.87 -283.465Z" fill="#000"/>
 </g>
 <g clip-path="url(#clippath140098097748008)">
  <path d="M209.764 -138.898L272.126 -138.898L272.126 -201.26L209.764 -201.26Z" fill="#f00"/>
  <path d="M493.228 -138.898L555.591 -138.898L555.591 -201.26L493.228 -201.26Z" fill="#f00"/>
  <path d="M776.693 -138.898L839.055 -138.898L839.055 -201.26L776.693 -201.26Z" fill="#f00"/>
  <path d="M1060.16 -138.898L1122.52 -138.898L1122.52 -201.26L1060.16 -201.26Z" fill="#f00"/>
  <path d="M1343.62 -138.898L1405.98 -138.898L1405.98 -201.26L1343.62 -201.26Z" fill="#f00"/>
  <path d="M1627.09 -138.898L1689.45 -138.898L1689.45 -201.26L1627.09 -201.26Z" fill="#f00"/>
  <path d="M1910.55 -138.898L1972.91 -138.898L1972.91 -201.26L1910.55 -201.26Z" fill="#f00"/>
  <path d="M2194.02 -138.898L2256.38 -138.898L2256.38 -201.26L2194.02 -201.26Z" fill="#f00"/>
  <path d="M2477.48 -138.898L2539.84 -138.898L2539.84 -201.26L2477.48 -201.26Z" fill="#f00"/>
  <path d="M2760.94 -138.898L2823.31 -138.898L2823.31 -201.26L2760.94 -201.26Z" fill="#f00"/>
 </g>
 <g clip-path="url(#clippath140098097749856)">
  <path d="M0 -144.567L2834.65 -144.567L2834.65 -147.402L0 -147.402Z" fill="#f00"/>
 </g>
 <g clip-path="url(#clippath140098097778928)">
  <path d="M212.598 -141.732L269.291 -141.732L269.291 -198.425L212.598 -198.425Z" fill="#000"/>
  <path d="M496.063 -141.732L552.756 -141.732L552.756 -198.425L496.063 -198.425Z" fill="#000"/>
  <path d="M779.528 -141.732L836.22 -141.732L836.22 -198.425L779.528 -198.425Z" fill="#000"/>
  <path d="M1062.99 -141.732L1119.69 -141.732L1119.69 -198.425L1062.99 -198.425Z" fill="#000"/>
  <path d="M1346.46 -141.732L1403.15 -141.732L1403.15 -198.425L1346.46 -198.425Z" fill="#000"/>
  <path d="M1629.92 -141.732L1686.61 -141.732L1686.61 -198.425L1629.92 -198.425Z" fill="#000"/>
  <path d="M1913.39 -141.732L1970.08 -141.732L1970.08 -198.425L1913.39 -198.425Z" fill="#000"/>
  <path d="M2196.85 -141.732L2253.54 -141.732L2253.54 -198.425L2196.85 -198.425Z" fill="#000"/>
  <path d="M2480.31 -141.732L2537.01 -141.732L2537.01 -198.425L2480.31 -198.425Z" fill="#000"/>
  <path d="M2763.78 -141.732L2820.47 -141.732L2820.47 -198.425L2763.78 -198.425Z" fill="#000"/>
 </g>
 <g clip-path="url(#clippath140098097780776)">
  <path d="M0 -141.732L2834.65 -141.732L2834.65 -144.567L0 -144.567Z" fill="#000"/>
 </g>
 <g clip-path="url(#clippath140098097781112)">
  <path d="M685.984 -283.465A62.3622 62.3622 0 0 0 561.26 -283.465L685.984 -283.465" fill="#00f"/>
  <path d="M827.717 -283.465A62.3622 62.3622 0 0 0 702.992 -283.465L827.717 -283.465" fill="#00f"/>
  <path d="M969.449 -283.465A62.3622 62.3622 0 0 0 844.724 -283.465L969.449 -283.465" fill="#00f"/>
  <path d="M1111.18 -283.465A62.3622 62.3622 0 0 0 986.457 -283.465L1111.18 -283.465" fill="#00f"/>
  <path d="M1252.91 -283.465A62.3622 62.3622 0 0 0 1128.19 -283.465L1252.91 -283.465" fill="#00f"/>
 </g>
 <g clip-path="url(#clippath140098097782120)">
  <path d="M683.15 -283.465A59.5276 59.5276 0 0 0 564.094 -283.465L683.15 -283.465" fill="#f00"/>
  <path d="M824.882 -283.465A59.5276 59.5276 0 0 0 705.827 -283.465L824.882 -283.465" fill="#f00"/>
  <path d="M966.614 -283.465A59.5276 59.5276 0 0 0 847.559 -283.465L966.614 -283.465" fill="#f00"/>
  <path d="M1108.35 -283.465A59.5276 59.5276 0 0 0 989.291 -283.465L1108.35 -283.465" fill="#f00"/>
  <path d="M1250.08 -283.465A59.5276 59.5276 0 0 0 1131.02 -283.465L1250.08 -283.465" fill="#f00"/>
 </g>
 <g clip-path="url(#clippath140098097828248)">
  <path d="M680.315 -283.465A56.6929 56.6929 0 0 0 566.929 -283.465L680.315 -283.465" fill="#000"/>
  <path d="M822.047 -283.465A56.6929 56.6929 0 0 0 708.661 -283.465L822.047 -283.465" fill="#000"/>
  <path d="M963.78 -283.465A56.6929 56.6929 0 0 0 850.394 -283.465L963.78 -283.465" fill="#000"/>
  <path d="M1105.51 -283.465A56.6929 56.6929 0 0 0 992.126 -283.465L1105.51 -283.465" fill="#000"/>
  <path d="M1247.24 -283.465A56.6929 56.6929 0 0 0 1133.86 -283.465L1247.24 -283.465" fill="#000"/>
 </g>
 <g clip-path="url(#clippath140098097829256)">
  <path d="M1133.86 -283.465L1162.2 -340.157L1162.2 -283.465L1133.86 -283.465" fill="#000"/>
  <path d="M1275.59 -283.465L1303.94 -340.157L1303.94 -283.465L1275.59 -283.465" fill="#000"/>
  <path d="M1417.32 -283.465L1445.67 -340.157L1445.67 -283.465L1417.32 -283.465" fill="#000"/>
  <path d="M1559.06 -283.465L1587.4 -340.157L1587.4 -283.465L1559.06 -283.465" fill="#000"/>
  <path d="M1700.79 -283.465L1729.13 -340.157L1729.13 -283.465L1700.79 -283.465" fill="#000"/>
 </g>
 <g clip-path="url(#clippath140098097830544)">
  <path d="M1700.79 -340.157L1695.98 -336.485L1757.78 -430.006L1789.43 -367.013Z" fill="#f00"/>
  <path d="M1842.52 -340.157L1837.71 -336.485L1899.51 -430.006L1931.16 -367.013Z" fill="#f00"/>
  <path d="M1984.25 -340.157L1979.44 -336.485L2041.24 -430.006L2072.89 -367.013Z" fill="#f00"/>
  <path d="M2125.98 -340.157L2121.18 -336.485L2182.98 -430.006L2214.62 -367.013Z" fill="#f00"/>
  <path d="M2267.72 -340.157L2262.91 -336.485L2324.71 -430.006L2356.36 -367.013Z" fill="#f00"/>
 </g>
 <g clip-path="url(#clippath140098097831832)">
  <path d="M1700.79 -340.157L1757.48 -425.197L1785.83 -368.504L1700.79 -340.157Z" fill="#000"/>
  <path d="M1842.52 -340.157L1899.21 -425.197L1927.56 -368.504L1842.52 -340.157Z" fill="#000"/>
  <path d="M1984.25 -340.157L2040.94 -425.197L2069.29 -368.504L1984.25 -340.157Z" fill="#000"/>
  <path d="M2125.98 -340.157L2182.68 -425.197L2211.02 -368.504L2125.98 -340.157Z" fill="#000"/>
  <path d="M2267.72 -340.157L2324.41 -425.197L2352.76 -368.504L2267.72 -340.157Z" fill="#000"/>
 </g>
 <g clip-path="url(#clippath140098097861856)">
  <path d="M1771.65 -340.157L1785.83 -364.706L1800 -340.157Z" fill="#000"/>
  <path d="M1913.39 -340.157L1927.56 -364.706L1941.73 -340.157Z" fill="#000"/>
  <path d="M2055.12 -340.157L2069.29 -364.706L2083.46 -340.157Z" fill="#000"/>
  <path d="M2196.85 -340.157L2211.02 -364.706L2225.2 -340.157Z" fill="#000"/>
 </g>
</svg>
