<?xml version="1.0" encoding="utf-8"?>
<svg xmlns="http://www.w3.org/2000/svg" fill="none" version="1.1" viewBox="-1 -851.394 2836.65 852.394" x="-1pt" y="-851.394pt" width="2836.65pt" height="852.394pt" stroke-width="0.566929" stroke-miterlimit="10.000000">
 <defs>
  <clipPath id="clippath140463592842632">
   <path d="M0 -0L2834.65 -0L2834.65 -283.465L0 -283.465Z"/>
  </clipPath>
  <clipPath id="clippath140463592842968">
   <path d="M0 -283.465L2834.65 -283.465L2834.65 -311.811L0 -311.811Z"/>
  </clipPath>
  <clipPath id="clippath140463592843304">
   <path d="M0 -283.465L2834.65 -283.465L2834.65 -850.394L0 -850.394Z"/>
  </clipPath>
  <clipPath id="clippath140463592843640">
   <path d="M0 -283.465L2834.65 -283.465L2834.65 -850.394L0 -850.394Z"/>
  </clipPath>
 </defs>
 <g clip-path="url(#clippath140463592842632)">
  <path d="M0 -0L2834.65 -0L2834.65 -283.465L0 -283.465Z" fill="#00f"/>
 </g>
 <g clip-path="url(#clippath140463592842968)">
  <path d="M0 -283.465L2834.65 -283.465L2834.65 -311.811L0 -311.811Z" fill="#666"/>
 </g>
 <g clip-path="url(#clippath140463592843304)">
  <path d="M1247.24 -255.118L1587.4 -255.118L1587.4 -878.74L1247.24 -878.74Z" fill="#666"/>
 </g>
 <g clip-path="url(#clippath140463592843640)">
  <path d="M1275.59 -283.465L1559.06 -283.465L1559.06 -850.394L1275.59 -850.394Z" fill="#00f"/>
 </g>
</svg>
