<?xml version="1.0" encoding="utf-8"?>
<svg xmlns="http://www.w3.org/2000/svg" fill="none" version="1.1" viewBox="-1 -908.087 2836.65 909.087" x="-1pt" y="-908.087pt" width="2836.65pt" height="909.087pt" stroke-width="0.566929" stroke-miterlimit="10.000000">
 <defs>
  <clipPath id="clippath140463592844704">
   <path d="M0 -0L2834.65 -0L2834.65 -283.465L0 -283.465Z"/>
  </clipPath>
  <clipPath id="clippath140463592844368">
   <path d="M0 -283.465L2834.65 -283.465L2834.65 -311.811L0 -311.811Z"/>
  </clipPath>
  <clipPath id="clippath140463592844592">
   <path d="M0 -283.465L2834.65 -283.465L2834.65 -850.394L0 -850.394Z"/>
  </clipPath>
  <clipPath id="clippath140463592845208">
   <path d="M0 -283.465L2834.65 -283.465L2834.65 -850.394L0 -850.394Z"/>
  </clipPath>
  <clipPath id="clippath140463592882472">
   <path d="M0 -0L2834.65 -0L2834.65 -283.465L0 -283.465Z"/>
  </clipPath>
  <clipPath id="clippath140463592882808">
   <path d="M0 -283.465L2834.65 -283.465L2834.65 -311.811L0 -311.811Z"/>
  </clipPath>
  <clipPath id="clippath140463592883144">
   <path d="M0 -283.465L2834.65 -283.465L2834.65 -850.394L0 -850.394Z"/>
  </clipPath>
  <clipPath id="clippath140463592883480">
   <path d="M566.929 -283.465L1984.25 -283.465L1984.25 -850.394L566.929 -850.394Z"/>
  </clipPath>
  <clipPath id="clippath140463592883984">
   <path d="M0 -283.465L2834.65 -283.465L2834.65 -822.047L0 -822.047Z"/>
  </clipPath>
  <clipPath id="clippath140463592884488">
   <path d="M0 -283.465L2834.65 -283.465L2834.65 -850.394L0 -850.394Z"/>
  </clipPath>
  <clipPath id="clippath140463592884824">
   <path d="M0 -850.394L2834.65 -850.394L2834.65 -878.74L0 -878.74Z"/>
  </clipPath>
  <clipPath id="clippath140463592885160">
   <path d="M0 -878.74L2834.65 -878.74L2834.65 -907.087L0 -907.087Z"/>
  </clipPath>
 </defs>
 <g clip-path="url(#clippath140463592844704)">
  <path d="M0 -0L2834.65 -0L2834.65 -283.465L0 -283.465Z" fill="#00f"/>
 </g>
 <g clip-path="url(#clippath140463592844368)">
  <path d="M0 -283.465L2834.65 -283.465L2834.65 -311.811L0 -311.811Z" fill="#666"/>
 </g>
 <g clip-path="url(#clippath140463592844592)">
  <path d="M1247.24 -255.118L1587.4 -255.118L1587.4 -878.74L1247.24 -878.74Z" fill="#666"/>
 </g>
 <g clip-path="url(#clippath140463592845208)">
  <path d="M1275.59 -283.465L1559.06 -283.465L1559.06 -850.394L1275.59 -850.394Z" fill="#00f"/>
 </g>
 <g clip-path="url(#clippath140463592882472)">
  <path d="M0 -0L2834.65 -0L2834.65 -283.465L0 -283.465Z" fill="#00f"/>
 </g>
 <g clip-path="url(#clippath140463592882808)">
  <path d="M0 -283.465L2834.65 -283.465L2834.65 -311.811L0 -311.811Z" fill="#666"/>
 </g>
 <g clip-path="url(#clippath140463592883144)">
  <path d="M708.661 -283.465L2125.98 -283.465L2125.98 -850.394L708.661 -850.394Z" fill="#00f"/>
 </g>
 <g clip-path="url(#clippath140463592883480)">
  <path d="M708.661 -283.465L992.126 -283.465L992.126 -850.394L708.661 -850.394Z" fill="#f00"/>
  <path d="M1842.52 -283.465L2125.98 -283.465L2125.98 -850.394L1842.52 -850.394Z" fill="#f00"/>
 </g>
 <g clip-path="url(#clippath140463592883984)">
  <path d="M566.929 -311.811L708.661 -311.811L708.661 -850.394L566.929 -850.394Z" fill="#000"/>
  <path d="M2125.98 -311.811L2267.72 -311.811L2267.72 -850.394L2125.98 -850.394Z" fill="#000"/>
 </g>
 <g clip-path="url(#clippath140463592884488)">
  <path d="M992.126 -283.465L1842.52 -283.465L1842.52 -850.394L992.126 -850.394Z" fill="#7f7f00"/>
 </g>
 <g clip-path="url(#clippath140463592884824)">
  <path d="M708.661 -850.394L2125.98 -850.394L2125.98 -878.74L708.661 -878.74Z" fill="#666"/>
 </g>
 <g clip-path="url(#clippath140463592885160)">
  <path d="M992.126 -878.74L1842.52 -878.74L1842.52 -907.087L992.126 -907.087Z" fill="#000"/>
 </g>
</svg>
