<?xml version="1.0" encoding="utf-8"?>
<svg xmlns="http://www.w3.org/2000/svg" fill="none" version="1.1" viewBox="-1 -908.087 2836.65 909.087" x="-1pt" y="-908.087pt" width="2836.65pt" height="909.087pt" stroke-width="0.566929" stroke-miterlimit="10.000000">
 <defs>
  <clipPath id="clippath140066130903896">
   <path d="M0 -0L2834.65 -0L2834.65 -283.465L0 -283.465Z"/>
  </clipPath>
  <clipPath id="clippath140066130903560">
   <path d="M0 -283.465L2834.65 -283.465L2834.65 -595.276L0 -595.276Z"/>
  </clipPath>
  <clipPath id="clippath140066130904232">
   <path d="M0 -283.465L2834.65 -283.465L2834.65 -1133.86L0 -1133.86Z"/>
  </clipPath>
  <clipPath id="clippath140066130904568">
   <path d="M566.929 -283.465L2551.18 -283.465L2551.18 -1133.86L566.929 -1133.86Z"/>
  </clipPath>
  <clipPath id="clippath140066130906808">
   <path d="M0 -283.465L2834.65 -283.465L2834.65 -1105.51L0 -1105.51Z"/>
  </clipPath>
  <clipPath id="clippath140066131001584">
   <path d="M0 -283.465L2834.65 -283.465L2834.65 -1133.86L0 -1133.86Z"/>
  </clipPath>
  <clipPath id="clippath140066131001920">
   <path d="M0 -850.394L2834.65 -850.394L2834.65 -1729.13L0 -1729.13Z"/>
  </clipPath>
  <clipPath id="clippath140066131002256">
   <path d="M0 -878.74L2834.65 -878.74L2834.65 -1785.83L0 -1785.83Z"/>
  </clipPath>
 </defs>
 <g clip-path="url(#clippath140066130903896)">
  <path d="M0 -0L2834.65 -0L2834.65 -283.465L0 -283.465Z" fill="#00f"/>
 </g>
 <g clip-path="url(#clippath140066130903560)">
  <path d="M0 -283.465L2834.65 -283.465L2834.65 -311.811L0 -311.811Z" fill="#666"/>
 </g>
 <g clip-path="url(#clippath140066130904232)">
  <path d="M708.661 -283.465L2125.98 -283.465L2125.98 -850.394L708.661 -850.394Z" fill="#00f"/>
 </g>
 <g clip-path="url(#clippath140066130904568)">
  <path d="M708.661 -283.465L992.126 -283.465L992.126 -850.394L708.661 -850.394Z" fill="#f00"/>
  <path d="M1842.52 -283.465L2125.98 -283.465L2125.98 -850.394L1842.52 -850.394Z" fill="#f00"/>
 </g>
 <g clip-path="url(#clippath140066130906808)">
  <path d="M566.929 -311.811L708.661 -311.811L708.661 -850.394L566.929 -850.394Z" fill="#000"/>
  <path d="M2125.98 -311.811L2267.72 -311.811L2267.72 -850.394L2125.98 -850.394Z" fill="#000"/>
 </g>
 <g clip-path="url(#clippath140066131001584)">
  <path d="M992.126 -283.465L1842.52 -283.465L1842.52 -850.394L992.126 -850.394Z" fill="#7f7f00"/>
 </g>
 <g clip-path="url(#clippath140066131001920)">
  <path d="M708.661 -850.394L2125.98 -850.394L2125.98 -878.74L708.661 -878.74Z" fill="#666"/>
 </g>
 <g clip-path="url(#clippath140066131002256)">
  <path d="M992.126 -878.74L1842.52 -878.74L1842.52 -907.087L992.126 -907.087Z" fill="#000"/>
 </g>
</svg>
