<?xml version="1.0" encoding="utf-8"?>
<svg xmlns="http://www.w3.org/2000/svg" fill="none" version="1.1" viewBox="-1 -879.74 2836.65 4424.05" x="-1pt" y="-879.74pt" width="2836.65pt" height="4424.05pt" stroke-width="0.566929" stroke-miterlimit="10.000000">
 <defs>
  <clipPath id="clippath139797450305664">
   <path d="M0 -0L2834.65 -0L2834.65 -283.465L0 -283.465Z"/>
  </clipPath>
  <clipPath id="clippath139797450307680">
   <path d="M0 -283.465L2834.65 -283.465L2834.65 -311.811L0 -311.811Z"/>
  </clipPath>
  <clipPath id="clippath139797450308520">
   <path d="M0 -283.465L2834.65 -283.465L2834.65 -1133.86L0 -1133.86Z"/>
  </clipPath>
  <clipPath id="clippath139797450308912">
   <path d="M0 -283.465L2834.65 -283.465L2834.65 -1133.86L0 -1133.86Z"/>
  </clipPath>
  <clipPath id="clippath139797449894488">
   <path d="M0 3543.31L2834.65 3543.31L2834.65 3259.84L0 3259.84Z"/>
  </clipPath>
  <clipPath id="clippath139797449892976">
   <path d="M0 3259.84L2834.65 3259.84L2834.65 3231.5L0 3231.5Z"/>
  </clipPath>
  <clipPath id="clippath139797449893368">
   <path d="M0 3259.84L2834.65 3259.84L2834.65 2692.91L0 2692.91Z"/>
  </clipPath>
  <clipPath id="clippath139797449893872">
   <path d="M566.929 3259.84L1984.25 3259.84L1984.25 2692.91L566.929 2692.91Z"/>
  </clipPath>
  <clipPath id="clippath139797449894208">
   <path d="M0 3259.84L2834.65 3259.84L2834.65 2721.26L0 2721.26Z"/>
  </clipPath>
  <clipPath id="clippath139797449894880">
   <path d="M0 3259.84L2834.65 3259.84L2834.65 2692.91L0 2692.91Z"/>
  </clipPath>
  <clipPath id="clippath139797449895216">
   <path d="M0 2692.91L2834.65 2692.91L2834.65 2664.57L0 2664.57Z"/>
  </clipPath>
  <clipPath id="clippath139797449895552">
   <path d="M0 2664.57L2834.65 2664.57L2834.65 2636.22L0 2636.22Z"/>
  </clipPath>
 </defs>
 <g clip-path="url(#clippath139797450305664)">
  <path d="M0 -0L2834.65 -0L2834.65 -283.465L0 -283.465Z" fill="#00f"/>
  <g transform="matrix(1.000000,0.000000,0.000000,1.000000,1417.322835,-141.732283)">
   <path d="M0.66 -0M4.16 -3.88C4.6 -3.8 6.24 -3.48 6.24 -2.04C6.24 -1.02 5.54 -0.22 3.98 -0.22C2.3 -0.22 1.58 -1.36 1.2 -3.06C1.14 -3.32 1.12 -3.4 0.92 -3.4C0.66 -3.4 0.66 -3.26 0.66 -2.9L0.66 -0.26C0.66 0.08 0.66 0.22 0.88 0.22C0.98 0.22 1 0.2 1.38 -0.18C1.42 -0.22 1.42 -0.26 1.78 -0.64C2.66 0.2 3.56 0.22 3.98 0.22C6.28 0.22 7.2 -1.12 7.2 -2.56C7.2 -3.62 6.6 -4.22 6.36 -4.46C5.7 -5.1 4.92 -5.26 4.08 -5.42C2.96 -5.64 1.62 -5.9 1.62 -7.06C1.62 -7.76 2.14 -8.58 3.86 -8.58C6.06 -8.58 6.16 -6.78 6.2 -6.16C6.22 -5.98 6.4 -5.98 6.44 -5.98C6.7 -5.98 6.7 -6.08 6.7 -6.46L6.7 -8.48C6.7 -8.82 6.7 -8.96 6.48 -8.96C6.38 -8.96 6.34 -8.96 6.08 -8.72C6.02 -8.64 5.82 -8.46 5.74 -8.4C4.98 -8.96 4.16 -8.96 3.86 -8.96C1.42 -8.96 0.66 -7.62 0.66 -6.5C0.66 -5.8 0.98 -5.24 1.52 -4.8C2.16 -4.28 2.72 -4.16 4.16 -3.88ZM4.16 -3.88M8.52 -0M15.7 -1.58L15.7 0.22L18.58 -0L18.58 -0.62C17.18 -0.62 17.02 -0.76 17.02 -1.74L17.02 -8.84L14.08 -8.62L14.08 -8C15.48 -8 15.64 -7.86 15.64 -6.88L15.64 -3.32C15.64 -1.58 14.68 -0.22 13.22 -0.22C11.54 -0.22 11.46 -1.16 11.46 -2.2L11.46 -8.84L8.52 -8.62L8.52 -8C10.08 -8 10.08 -7.94 10.08 -6.16L10.08 -3.16C10.08 -1.6 10.08 0.22 13.12 0.22C14.24 0.22 15.12 -0.34 15.7 -1.58ZM15.7 -1.58M19.54 -0M22.42 -7.54L22.42 -13.88L19.54 -13.66L19.54 -13.04C20.94 -13.04 21.1 -12.9 21.1 -11.92L21.1 -0L21.6 -0C21.62 -0.02 21.78 -0.3 22.32 -1.24C22.62 -0.78 23.46 0.22 24.94 0.22C27.32 0.22 29.4 -1.74 29.4 -4.32C29.4 -6.86 27.44 -8.84 25.16 -8.84C23.6 -8.84 22.74 -7.9 22.42 -7.54ZM22.42 -7.54M22.48 -2.28L22.48 -6.4C22.48 -6.78 22.48 -6.8 22.7 -7.12C23.48 -8.24 24.58 -8.4 25.06 -8.4C25.96 -8.4 26.68 -7.88 27.16 -7.12C27.68 -6.3 27.74 -5.16 27.74 -4.34C27.74 -3.6 27.7 -2.4 27.12 -1.5C26.7 -0.88 25.94 -0.22 24.86 -0.22C23.96 -0.22 23.24 -0.7 22.76 -1.44C22.48 -1.86 22.48 -1.92 22.48 -2.28ZM22.48 -2.28M30.74 -0M34.24 -3.88C34.68 -3.8 36.32 -3.48 36.32 -2.04C36.32 -1.02 35.62 -0.22 34.06 -0.22C32.38 -0.22 31.66 -1.36 31.28 -3.06C31.22 -3.32 31.2 -3.4 31 -3.4C30.74 -3.4 30.74 -3.26 30.74 -2.9L30.74 -0.26C30.74 0.08 30.74 0.22 30.96 0.22C31.06 0.22 31.08 0.2 31.46 -0.18C31.5 -0.22 31.5 -0.26 31.86 -0.64C32.74 0.2 33.64 0.22 34.06 0.22C36.36 0.22 37.28 -1.12 37.28 -2.56C37.28 -3.62 36.68 -4.22 36.44 -4.46C35.78 -5.1 35 -5.26 34.16 -5.42C33.04 -5.64 31.7 -5.9 31.7 -7.06C31.7 -7.76 32.22 -8.58 33.94 -8.58C36.14 -8.58 36.24 -6.78 36.28 -6.16C36.3 -5.98 36.48 -5.98 36.52 -5.98C36.78 -5.98 36.78 -6.08 36.78 -6.46L36.78 -8.48C36.78 -8.82 36.78 -8.96 36.56 -8.96C36.46 -8.96 36.42 -8.96 36.16 -8.72C36.1 -8.64 35.9 -8.46 35.82 -8.4C35.06 -8.96 34.24 -8.96 33.94 -8.96C31.5 -8.96 30.74 -7.62 30.74 -6.5C30.74 -5.8 31.06 -5.24 31.6 -4.8C32.24 -4.28 32.8 -4.16 34.24 -3.88ZM34.24 -3.88M38.34 -0M41.42 -8L44.28 -8L44.28 -8.62L41.42 -8.62L41.42 -12.3L40.92 -12.3C40.9 -10.66 40.3 -8.52 38.34 -8.44L38.34 -8L40.04 -8L40.04 -2.48C40.04 -0.02 41.9 0.22 42.62 0.22C44.04 0.22 44.6 -1.2 44.6 -2.48L44.6 -3.62L44.1 -3.62L44.1 -2.52C44.1 -1.04 43.5 -0.28 42.76 -0.28C41.42 -0.28 41.42 -2.1 41.42 -2.44ZM41.42 -2.44M46.28 -0M49.06 -6.64L49.06 -8.84L46.28 -8.62L46.28 -8C47.68 -8 47.84 -7.86 47.84 -6.88L47.84 -1.52C47.84 -0.62 47.62 -0.62 46.28 -0.62L46.28 -0C47.06 -0.02 48 -0.06 48.56 -0.06C49.36 -0.06 50.3 -0.06 51.1 -0L51.1 -0.62L50.68 -0.62C49.2 -0.62 49.16 -0.84 49.16 -1.56L49.16 -4.64C49.16 -6.62 50 -8.4 51.52 -8.4C51.66 -8.4 51.7 -8.4 51.74 -8.38C51.68 -8.36 51.28 -8.12 51.28 -7.6C51.28 -7.04 51.7 -6.74 52.14 -6.74C52.5 -6.74 53 -6.98 53 -7.62C53 -8.26 52.38 -8.84 51.52 -8.84C50.06 -8.84 49.34 -7.5 49.06 -6.64ZM49.06 -6.64M54.38 -0M60.2 -1.52C60.28 -0.72 60.82 0.12 61.76 0.12C62.18 0.12 63.4 -0.16 63.4 -1.78L63.4 -2.9L62.9 -2.9L62.9 -1.78C62.9 -0.62 62.4 -0.5 62.18 -0.5C61.52 -0.5 61.44 -1.4 61.44 -1.5L61.44 -5.5C61.44 -6.34 61.44 -7.12 60.72 -7.86C59.94 -8.64 58.94 -8.96 57.98 -8.96C56.34 -8.96 54.96 -8.02 54.96 -6.7C54.96 -6.1 55.36 -5.76 55.88 -5.76C56.44 -5.76 56.8 -6.16 56.8 -6.68C56.8 -6.92 56.7 -7.58 55.78 -7.6C56.32 -8.3 57.3 -8.52 57.94 -8.52C58.92 -8.52 60.06 -7.74 60.06 -5.96L60.06 -5.22C59.04 -5.16 57.64 -5.1 56.38 -4.5C54.88 -3.82 54.38 -2.78 54.38 -1.9C54.38 -0.28 56.32 0.22 57.58 0.22C58.9 0.22 59.82 -0.58 60.2 -1.52ZM60.2 -1.52M60.06 -4.8L60.06 -2.8C60.06 -0.9 58.62 -0.22 57.72 -0.22C56.74 -0.22 55.92 -0.92 55.92 -1.92C55.92 -3.02 56.76 -4.68 60.06 -4.8ZM60.06 -4.8M63.92 -0M67 -8L69.86 -8L69.86 -8.62L67 -8.62L67 -12.3L66.5 -12.3C66.48 -10.66 65.88 -8.52 63.92 -8.44L63.92 -8L65.62 -8L65.62 -2.48C65.62 -0.02 67.48 0.22 68.2 0.22C69.62 0.22 70.18 -1.2 70.18 -2.48L70.18 -3.62L69.68 -3.62L69.68 -2.52C69.68 -1.04 69.08 -0.28 68.34 -0.28C67 -0.28 67 -2.1 67 -2.44ZM67 -2.44M71.86 -0M73.54 -5.04C73.66 -8.02 75.34 -8.52 76.02 -8.52C78.08 -8.52 78.28 -5.82 78.28 -5.04ZM78.28 -5.04M73.52 -4.62L79.1 -4.62C79.54 -4.62 79.6 -4.62 79.6 -5.04C79.6 -7.02 78.52 -8.96 76.02 -8.96C73.7 -8.96 71.86 -6.9 71.86 -4.4C71.86 -1.72 73.96 0.22 76.26 0.22C78.7 0.22 79.6 -2 79.6 -2.38C79.6 -2.58 79.44 -2.62 79.34 -2.62C79.16 -2.62 79.12 -2.5 79.08 -2.34C78.38 -0.28 76.58 -0.28 76.38 -0.28C75.38 -0.28 74.58 -0.88 74.12 -1.62C73.52 -2.58 73.52 -3.9 73.52 -4.62ZM73.52 -4.62" fill="black"/>
  </g>
 </g>
 <g clip-path="url(#clippath139797450307680)">
  <path d="M0 -283.465L2834.65 -283.465L2834.65 -311.811L0 -311.811Z" fill="#666"/>
  <g transform="matrix(1.000000,0.000000,0.000000,1.000000,1417.322835,-297.637795)">
   <path d="M0.56 -0M9.42 -4.28C9.42 -6.84 7.42 -8.96 5 -8.96C2.5 -8.96 0.56 -6.78 0.56 -4.28C0.56 -1.7 2.64 0.22 4.98 0.22C7.4 0.22 9.42 -1.74 9.42 -4.28ZM9.42 -4.28M5 -0.28C4.14 -0.28 3.26 -0.7 2.72 -1.62C2.22 -2.5 2.22 -3.72 2.22 -4.44C2.22 -5.22 2.22 -6.3 2.7 -7.18C3.24 -8.1 4.18 -8.52 4.98 -8.52C5.86 -8.52 6.72 -8.08 7.24 -7.22C7.76 -6.36 7.76 -5.2 7.76 -4.44C7.76 -3.72 7.76 -2.64 7.32 -1.76C6.88 -0.86 6 -0.28 5 -0.28ZM5 -0.28M10.24 -0M15.74 -4.7C16.34 -5.46 17.1 -6.44 17.58 -6.96C18.2 -7.68 19.02 -7.98 19.96 -8L19.96 -8.62C19.44 -8.58 18.84 -8.56 18.32 -8.56C17.72 -8.56 16.66 -8.6 16.4 -8.62L16.4 -8C16.82 -7.96 16.98 -7.7 16.98 -7.38C16.98 -7.06 16.78 -6.8 16.68 -6.68L15.44 -5.12L13.88 -7.14C13.7 -7.34 13.7 -7.38 13.7 -7.5C13.7 -7.8 14 -7.98 14.4 -8L14.4 -8.62C13.88 -8.6 12.56 -8.56 12.24 -8.56C11.82 -8.56 10.88 -8.58 10.34 -8.62L10.34 -8C11.74 -8 11.76 -7.98 12.7 -6.78L14.68 -4.2L12.8 -1.82C11.84 -0.66 10.66 -0.62 10.24 -0.62L10.24 -0C10.76 -0.04 11.38 -0.06 11.9 -0.06C12.48 -0.06 13.32 -0.02 13.8 -0L13.8 -0.62C13.36 -0.68 13.22 -0.94 13.22 -1.24C13.22 -1.68 13.8 -2.34 15.02 -3.78L16.54 -1.78C16.7 -1.56 16.96 -1.24 16.96 -1.12C16.96 -0.94 16.78 -0.64 16.24 -0.62L16.24 -0C16.84 -0.02 17.96 -0.06 18.4 -0.06C18.94 -0.06 19.72 -0.04 20.32 -0L20.32 -0.62C19.24 -0.62 18.88 -0.66 18.42 -1.24ZM18.42 -1.24M21.2 -0M24.08 -8.84L21.28 -8.62L21.28 -8C22.58 -8 22.76 -7.88 22.76 -6.9L22.76 -1.52C22.76 -0.62 22.54 -0.62 21.2 -0.62L21.2 -0C21.84 -0.02 22.92 -0.06 23.4 -0.06C24.1 -0.06 24.8 -0.02 25.48 -0L25.48 -0.62C24.16 -0.62 24.08 -0.72 24.08 -1.5ZM24.08 -1.5M24.16 -12.32C24.16 -12.96 23.66 -13.38 23.1 -13.38C22.48 -13.38 22.04 -12.84 22.04 -12.32C22.04 -11.78 22.48 -11.26 23.1 -11.26C23.66 -11.26 24.16 -11.68 24.16 -12.32ZM24.16 -12.32M26.76 -0M33.68 -1.1L33.68 0.22L36.62 -0L36.62 -0.62C35.22 -0.62 35.06 -0.76 35.06 -1.74L35.06 -13.88L32.18 -13.66L32.18 -13.04C33.58 -13.04 33.74 -12.9 33.74 -11.92L33.74 -7.6C33.16 -8.32 32.3 -8.84 31.22 -8.84C28.86 -8.84 26.76 -6.88 26.76 -4.3C26.76 -1.76 28.72 0.22 31 0.22C32.28 0.22 33.18 -0.46 33.68 -1.1ZM33.68 -1.1M33.68 -6.46L33.68 -2.36C33.68 -2 33.68 -1.96 33.46 -1.62C32.86 -0.66 31.96 -0.22 31.1 -0.22C30.2 -0.22 29.48 -0.74 29 -1.5C28.48 -2.32 28.42 -3.46 28.42 -4.28C28.42 -5.02 28.46 -6.22 29.04 -7.12C29.46 -7.74 30.22 -8.4 31.3 -8.4C32 -8.4 32.84 -8.1 33.46 -7.2C33.68 -6.86 33.68 -6.82 33.68 -6.46ZM33.68 -6.46M37.74 -0M39.42 -5.04C39.54 -8.02 41.22 -8.52 41.9 -8.52C43.96 -8.52 44.16 -5.82 44.16 -5.04ZM44.16 -5.04M39.4 -4.62L44.98 -4.62C45.42 -4.62 45.48 -4.62 45.48 -5.04C45.48 -7.02 44.4 -8.96 41.9 -8.96C39.58 -8.96 37.74 -6.9 37.74 -4.4C37.74 -1.72 39.84 0.22 42.14 0.22C44.58 0.22 45.48 -2 45.48 -2.38C45.48 -2.58 45.32 -2.62 45.22 -2.62C45.04 -2.62 45 -2.5 44.96 -2.34C44.26 -0.28 42.46 -0.28 42.26 -0.28C41.26 -0.28 40.46 -0.88 40 -1.62C39.4 -2.58 39.4 -3.9 39.4 -4.62ZM39.4 -4.62" fill="black"/>
  </g>
 </g>
 <g clip-path="url(#clippath139797450308520)">
  <path d="M1247.24 -255.118L1587.4 -255.118L1587.4 -878.74L1247.24 -878.74Z" fill="#666"/>
 </g>
 <g clip-path="url(#clippath139797450308912)">
  <path d="M1275.59 -283.465L1559.06 -283.465L1559.06 -850.394L1275.59 -850.394Z" fill="#00f"/>
  <g transform="matrix(1.000000,0.000000,0.000000,1.000000,1417.322835,-708.661417)">
   <path d="M0.66 -0M3.5 -8.62L3.5 -10.94C3.5 -12.7 4.46 -13.66 5.34 -13.66C5.4 -13.66 5.7 -13.66 6 -13.52C5.76 -13.44 5.4 -13.18 5.4 -12.68C5.4 -12.22 5.72 -11.82 6.26 -11.82C6.84 -11.82 7.14 -12.22 7.14 -12.7C7.14 -13.44 6.4 -14.1 5.34 -14.1C3.94 -14.1 2.24 -13.04 2.24 -10.92L2.24 -8.62L0.66 -8.62L0.66 -8L2.24 -8L2.24 -1.52C2.24 -0.62 2.02 -0.62 0.68 -0.62L0.68 -0C1.46 -0.02 2.4 -0.06 2.96 -0.06C3.76 -0.06 4.7 -0.06 5.5 -0L5.5 -0.62L5.08 -0.62C3.6 -0.62 3.56 -0.84 3.56 -1.56L3.56 -8L5.84 -8L5.84 -8.62ZM5.84 -8.62M6.76 -0M9.64 -8.84L6.84 -8.62L6.84 -8C8.14 -8 8.32 -7.88 8.32 -6.9L8.32 -1.52C8.32 -0.62 8.1 -0.62 6.76 -0.62L6.76 -0C7.4 -0.02 8.48 -0.06 8.96 -0.06C9.66 -0.06 10.36 -0.02 11.04 -0L11.04 -0.62C9.72 -0.62 9.64 -0.72 9.64 -1.5ZM9.64 -1.5M9.72 -12.32C9.72 -12.96 9.22 -13.38 8.66 -13.38C8.04 -13.38 7.6 -12.84 7.6 -12.32C7.6 -11.78 8.04 -11.26 8.66 -11.26C9.22 -11.26 9.72 -11.68 9.72 -12.32ZM9.72 -12.32M12.28 -0M13.84 -6.88L13.84 -1.52C13.84 -0.62 13.62 -0.62 12.28 -0.62L12.28 -0C12.98 -0.02 14 -0.06 14.54 -0.06C15.06 -0.06 16.1 -0.02 16.78 -0L16.78 -0.62C15.44 -0.62 15.22 -0.62 15.22 -1.52L15.22 -5.2C15.22 -7.28 16.64 -8.4 17.92 -8.4C19.18 -8.4 19.4 -7.32 19.4 -6.18L19.4 -1.52C19.4 -0.62 19.18 -0.62 17.84 -0.62L17.84 -0C18.54 -0.02 19.56 -0.06 20.1 -0.06C20.62 -0.06 21.66 -0.02 22.34 -0L22.34 -0.62C21.3 -0.62 20.8 -0.62 20.78 -1.22L20.78 -5.04C20.78 -6.76 20.78 -7.38 20.16 -8.1C19.88 -8.44 19.22 -8.84 18.06 -8.84C16.6 -8.84 15.66 -7.98 15.1 -6.74L15.1 -8.84L12.28 -8.62L12.28 -8C13.68 -8 13.84 -7.86 13.84 -6.88ZM13.84 -6.88" fill="black"/>
  </g>
 </g>
 <g clip-path="url(#clippath139797449894488)">
  <path d="M0 3543.31L2834.65 3543.31L2834.65 3259.84L0 3259.84Z" fill="#00f"/>
 </g>
 <g clip-path="url(#clippath139797449892976)">
  <path d="M0 3259.84L2834.65 3259.84L2834.65 3231.5L0 3231.5Z" fill="#666"/>
 </g>
 <g clip-path="url(#clippath139797449893368)">
  <path d="M708.661 3259.84L2125.98 3259.84L2125.98 2692.91L708.661 2692.91Z" fill="#00f"/>
 </g>
 <g clip-path="url(#clippath139797449893872)">
  <path d="M708.661 3259.84L992.126 3259.84L992.126 2692.91L708.661 2692.91Z" fill="#f00"/>
  <path d="M1842.52 3259.84L2125.98 3259.84L2125.98 2692.91L1842.52 2692.91Z" fill="#f00"/>
 </g>
 <g clip-path="url(#clippath139797449894208)">
  <path d="M566.929 3231.5L708.661 3231.5L708.661 2692.91L566.929 2692.91Z" fill="#000"/>
  <path d="M2125.98 3231.5L2267.72 3231.5L2267.72 2692.91L2125.98 2692.91Z" fill="#000"/>
 </g>
 <g clip-path="url(#clippath139797449894880)">
  <path d="M992.126 3259.84L1842.52 3259.84L1842.52 2692.91L992.126 2692.91Z" fill="#7f7f00"/>
 </g>
 <g clip-path="url(#clippath139797449895216)">
  <path d="M708.661 2692.91L2125.98 2692.91L2125.98 2664.57L708.661 2664.57Z" fill="#666"/>
 </g>
 <g clip-path="url(#clippath139797449895552)">
  <path d="M992.126 2664.57L1842.52 2664.57L1842.52 2636.22L992.126 2636.22Z" fill="#000"/>
 </g>
</svg>
