<?xml version="1.0" encoding="utf-8"?>
<svg xmlns="http://www.w3.org/2000/svg" fill="none" version="1.1" viewBox="-1 -879.74 2836.65 880.74" x="-1pt" y="-879.74pt" width="2836.65pt" height="880.74pt" stroke-width="0.566929" stroke-miterlimit="10.000000">
 <defs>
  <clipPath id="clippath140066130903784">
   <path d="M0 -0L2834.65 -0L2834.65 -283.465L0 -283.465Z"/>
  </clipPath>
  <clipPath id="clippath140066130904120">
   <path d="M0 -283.465L2834.65 -283.465L2834.65 -595.276L0 -595.276Z"/>
  </clipPath>
  <clipPath id="clippath140066130904456">
   <path d="M0 -283.465L2834.65 -283.465L2834.65 -1133.86L0 -1133.86Z"/>
  </clipPath>
  <clipPath id="clippath140066130904792">
   <path d="M0 -283.465L2834.65 -283.465L2834.65 -1133.86L0 -1133.86Z"/>
  </clipPath>
 </defs>
 <g clip-path="url(#clippath140066130903784)">
  <path d="M0 -0L2834.65 -0L2834.65 -283.465L0 -283.465Z" fill="#000"/>
 </g>
 <g clip-path="url(#clippath140066130904120)">
  <path d="M0 -283.465L2834.65 -283.465L2834.65 -311.811L0 -311.811Z" fill="#f00"/>
 </g>
 <g clip-path="url(#clippath140066130904456)">
  <path d="M1247.24 -255.118L1587.4 -255.118L1587.4 -878.74L1247.24 -878.74Z" fill="#f00"/>
 </g>
 <g clip-path="url(#clippath140066130904792)">
  <path d="M1275.59 -283.465L1559.06 -283.465L1559.06 -850.394L1275.59 -850.394Z" fill="#000"/>
 </g>
</svg>
