<?xml version="1.0" encoding="utf-8"?>
<svg xmlns="http://www.w3.org/2000/svg" fill="none" version="1.1" viewBox="-1 3258.84 2836.65 285.465" x="-1pt" y="3258.84pt" width="2836.65pt" height="285.465pt" stroke-width="0.566929" stroke-miterlimit="10.000000">
 <defs>
  <clipPath id="clippath140026635821968">
   <path d="M0 3543.31L2834.65 3543.31L2834.65 3259.84L0 3259.84Z"/>
  </clipPath>
  <clipPath id="clippath140026635822304">
   <path d="M0 3543.31L2834.65 3543.31L2834.65 3259.84L0 3259.84Z"/>
  </clipPath>
  <clipPath id="clippath140026635822808">
   <path d="M0 3543.31L2834.65 3543.31L2834.65 3259.84L0 3259.84Z"/>
  </clipPath>
  <clipPath id="clippath140026635823144">
   <path d="M0 3543.31L2834.65 3543.31L2834.65 3259.84L0 3259.84Z"/>
  </clipPath>
  <clipPath id="clippath140026635823480">
   <path d="M0 3543.31L2834.65 3543.31L2834.65 3259.84L0 3259.84Z"/>
  </clipPath>
  <clipPath id="clippath140026635823984">
   <path d="M0 3543.31L2834.65 3543.31L2834.65 3259.84L0 3259.84Z"/>
  </clipPath>
 </defs>
 <g clip-path="url(#clippath140026635821968)">
  <path d="M0 -0L2834.65 -0L2834.65 -283.465L0 -283.465Z" fill="#00f"/>
 </g>
 <g clip-path="url(#clippath140026635822304)">
  <path d="M0 -252.283L1133.86 -252.283L1133.86 -280.63L0 -280.63Z" fill="#f00"/>
  <path d="M1700.79 -252.283L2834.65 -252.283L2834.65 -280.63L1700.79 -280.63Z" fill="#f00"/>
 </g>
 <g clip-path="url(#clippath140026635822808)">
  <path d="M1133.86 -252.283L1700.79 -252.283L1700.79 -280.63L1133.86 -280.63Z" fill="#7f7f00"/>
 </g>
 <g clip-path="url(#clippath140026635823144)">
  <path d="M0 3543.31L2834.65 3543.31L2834.65 3259.84L0 3259.84Z" fill="#00f"/>
 </g>
 <g clip-path="url(#clippath140026635823480)">
  <path d="M0 3291.02L1133.86 3291.02L1133.86 3262.68L0 3262.68Z" fill="#f00"/>
  <path d="M1700.79 3291.02L2834.65 3291.02L2834.65 3262.68L1700.79 3262.68Z" fill="#f00"/>
 </g>
 <g clip-path="url(#clippath140026635823984)">
  <path d="M0 3291.02L566.929 3291.02L566.929 3262.68L0 3262.68Z" fill="#7f7f00"/>
 </g>
</svg>
