<?xml version="1.0" encoding="utf-8"?>
<svg xmlns="http://www.w3.org/2000/svg" fill="none" version="1.1" viewBox="-1 -341.157 2836.65 342.157" x="-1pt" y="-341.157pt" width="2836.65pt" height="342.157pt" stroke-width="0.566929" stroke-miterlimit="10.000000">
 <defs>
  <clipPath id="clippath140197295902672">
   <path d="M0 -0L2834.65 -0L2834.65 -283.465L0 -283.465Z"/>
  </clipPath>
  <clipPath id="clippath140197295902000">
   <path d="M0 -0L2834.65 -0L2834.65 -283.465L0 -283.465Z"/>
  </clipPath>
  <clipPath id="clippath140197295902616">
   <path d="M0 -0L2834.65 -0L2834.65 -283.465L0 -283.465Z"/>
  </clipPath>
  <clipPath id="clippath140197295984992">
   <path d="M0 -283.465L2834.65 -283.465L2834.65 -595.276L0 -595.276Z"/>
  </clipPath>
  <clipPath id="clippath140197295985328">
   <path d="M0 -311.811L2834.65 -311.811L2834.65 -907.087L0 -907.087Z"/>
  </clipPath>
 </defs>
 <g clip-path="url(#clippath140197295902672)">
  <path d="M0 -0L2834.65 -0L2834.65 -283.465L0 -283.465Z" fill="#000"/>
 </g>
 <g clip-path="url(#clippath140197295902000)">
  <path d="M0 -252.283L1133.86 -252.283L1133.86 -280.63L0 -280.63Z" fill="#000"/>
  <path d="M1700.79 -252.283L2834.65 -252.283L2834.65 -280.63L1700.79 -280.63Z" fill="#000"/>
 </g>
 <g clip-path="url(#clippath140197295902616)">
  <path d="M1133.86 -252.283L1700.79 -252.283L1700.79 -280.63L1133.86 -280.63Z" fill="#000"/>
 </g>
 <g clip-path="url(#clippath140197295984992)">
  <path d="M0 -283.465L2834.65 -283.465L2834.65 -311.811L0 -311.811Z" fill="#000"/>
 </g>
 <g clip-path="url(#clippath140197295985328)">
  <path d="M1133.86 -311.811L1700.79 -311.811L1700.79 -340.157L1133.86 -340.157Z" fill="#000"/>
 </g>
</svg>
